<?xml version="1.0" encoding="UTF-8" standalone="no"?>
<!-- Created with Inkscape (http://www.inkscape.org/) -->

<svg
   width="489.18085"
   height="100.42773"
   viewBox="0 0 489.18085 100.42773"
   version="1.1"
   id="SVGRoot"
   sodipodi:docname="boardtoe_project.svg"
   inkscape:version="1.2.1 (9c6d41e410, 2022-07-14, custom)"
   inkscape:export-filename="boardtoe.png"
   inkscape:export-xdpi="96"
   inkscape:export-ydpi="96"
   xmlns:inkscape="http://www.inkscape.org/namespaces/inkscape"
   xmlns:sodipodi="http://sodipodi.sourceforge.net/DTD/sodipodi-0.dtd"
   xmlns:xlink="http://www.w3.org/1999/xlink"
   xmlns="http://www.w3.org/2000/svg"
   xmlns:svg="http://www.w3.org/2000/svg">
  <sodipodi:namedview
     id="namedview81"
     pagecolor="#808080"
     bordercolor="#444444"
     borderopacity="1"
     inkscape:showpageshadow="0"
     inkscape:pageopacity="1.0"
     inkscape:pagecheckerboard="1"
     inkscape:deskcolor="#d1d1d1"
     inkscape:document-units="px"
     showgrid="false"
     inkscape:zoom="2"
     inkscape:cx="406.25"
     inkscape:cy="366.25"
     inkscape:window-width="1920"
     inkscape:window-height="994"
     inkscape:window-x="0"
     inkscape:window-y="0"
     inkscape:window-maximized="1"
     inkscape:current-layer="layer1"
     inkscape:pageshadow="0" />
  <defs
     id="defs76">
    <linearGradient
       inkscape:collect="always"
       id="linearGradient1374">
      <stop
         style="stop-color:#00dcef;stop-opacity:0.80392158;"
         offset="0"
         id="stop1370" />
      <stop
         style="stop-color:#0015da;stop-opacity:0.79607844;"
         offset="0.3716062"
         id="stop1378" />
      <stop
         style="stop-color:#00dcef;stop-opacity:0.80392158;"
         offset="0.68827552"
         id="stop1445" />
      <stop
         style="stop-color:#0015da;stop-opacity:0.79607844;"
         offset="1"
         id="stop1372" />
    </linearGradient>
    <linearGradient
       inkscape:collect="always"
       xlink:href="#linearGradient1374"
       id="linearGradient1376"
       x1="174.44336"
       y1="407.19373"
       x2="630.0658"
       y2="407.19373"
       gradientUnits="userSpaceOnUse" />
  </defs>
  <g
     inkscape:label="Layer 1"
     inkscape:groupmode="layer"
     id="layer1"
     transform="translate(-155.11913,-357.74023)">
    <path
       id="path1354"
       style="fill:#000000;stroke-width:0.939321"
       d="m 451.12109,412.72461 a 7.9858642,12.445857 0 0 0 -1.04297,0.10547 7.9858642,12.445857 0 0 0 -1.02343,0.31836 7.9858642,12.445857 0 0 0 -0.99024,0.52344 7.9858642,12.445857 0 0 0 -0.9375,0.7207 7.9858642,12.445857 0 0 0 -0.86718,0.9043 7.9858642,12.445857 0 0 0 -0.78711,1.07421 7.9858642,12.445857 0 0 0 -0.6875,1.22266 7.9858642,12.445857 0 0 0 -0.58008,1.35352 7.9858642,12.445857 0 0 0 -0.46289,1.46093 7.9858642,12.445857 0 0 0 -0.33594,1.54297 7.9858642,12.445857 0 0 0 -0.20313,1.59571 7.9858642,12.445857 0 0 0 -0.0684,1.625 7.9858642,12.445857 0 0 0 0.0684,1.625 7.9858642,12.445857 0 0 0 0.20313,1.5957 7.9858642,12.445857 0 0 0 0.33594,1.54297 7.9858642,12.445857 0 0 0 0.46289,1.45898 7.9858642,12.445857 0 0 0 0.58008,1.35352 7.9858642,12.445857 0 0 0 0.68945,1.22461 7.9858642,12.445857 0 0 0 0.78516,1.07226 7.9858642,12.445857 0 0 0 0.86914,0.9043 7.9858642,12.445857 0 0 0 0.93554,0.7207 7.9858642,12.445857 0 0 0 0.99024,0.52344 7.9858642,12.445857 0 0 0 1.02343,0.31836 7.9858642,12.445857 0 0 0 1.04297,0.10547 7.9858642,12.445857 0 0 0 1.04297,-0.10547 7.9858642,12.445857 0 0 0 1.02344,-0.31836 7.9858642,12.445857 0 0 0 0.99023,-0.52344 7.9858642,12.445857 0 0 0 0.93555,-0.7207 7.9858642,12.445857 0 0 0 0.86914,-0.9043 7.9858642,12.445857 0 0 0 0.78516,-1.07226 7.9858642,12.445857 0 0 0 0.68945,-1.22461 7.9858642,12.445857 0 0 0 0.58008,-1.35352 7.9858642,12.445857 0 0 0 0.46289,-1.45898 7.9858642,12.445857 0 0 0 0.33594,-1.54297 7.9858642,12.445857 0 0 0 0.20312,-1.5957 7.9858642,12.445857 0 0 0 0.0684,-1.625 7.9858642,12.445857 0 0 0 -0.008,-0.5586 7.9858642,12.445857 0 0 0 -0.0234,-0.55664 7.9858642,12.445857 0 0 0 -0.041,-0.55469 7.9858642,12.445857 0 0 0 -0.0566,-0.55273 7.9858642,12.445857 0 0 0 -0.0703,-0.54688 7.9858642,12.445857 0 0 0 -0.0879,-0.54101 7.9858642,12.445857 0 0 0 -0.10351,-0.53516 7.9858642,12.445857 0 0 0 -0.11914,-0.52734 7.9858642,12.445857 0 0 0 -0.13282,-0.51953 7.9858642,12.445857 0 0 0 -0.14843,-0.50782 7.9858642,12.445857 0 0 0 -0.16211,-0.49804 7.9858642,12.445857 0 0 0 -0.17774,-0.48633 7.9858642,12.445857 0 0 0 -0.18945,-0.47266 7.9858642,12.445857 0 0 0 -0.20508,-0.45898 7.9858642,12.445857 0 0 0 -0.2168,-0.44531 7.9858642,12.445857 0 0 0 -0.23046,-0.42774 7.9858642,12.445857 0 0 0 -0.24024,-0.41211 7.9858642,12.445857 0 0 0 -0.25391,-0.39453 7.9858642,12.445857 0 0 0 -0.26562,-0.37695 7.9858642,12.445857 0 0 0 -0.27344,-0.35938 7.9858642,12.445857 0 0 0 -0.28515,-0.33789 7.9858642,12.445857 0 0 0 -0.29493,-0.31836 7.9858642,12.445857 0 0 0 -0.30468,-0.29687 7.9858642,12.445857 0 0 0 -0.31055,-0.27539 7.9858642,12.445857 0 0 0 -0.32031,-0.25391 7.9858642,12.445857 0 0 0 -0.32617,-0.23047 7.9858642,12.445857 0 0 0 -0.33204,-0.20898 7.9858642,12.445857 0 0 0 -0.33789,-0.1836 7.9858642,12.445857 0 0 0 -0.34375,-0.16015 7.9858642,12.445857 0 0 0 -0.34765,-0.13672 7.9858642,12.445857 0 0 0 -0.35156,-0.11328 7.9858642,12.445857 0 0 0 -0.35352,-0.0859 7.9858642,12.445857 0 0 0 -0.35547,-0.0625 7.9858642,12.445857 0 0 0 -0.35937,-0.0391 7.9858642,12.445857 0 0 0 -0.35743,-0.0117 z m 0,4.70898 a 4.9642735,7.7367506 0 0 1 0.28907,0.0137 4.9642735,7.7367506 0 0 1 0.28711,0.0391 4.9642735,7.7367506 0 0 1 0.28515,0.0644 4.9642735,7.7367506 0 0 1 0.2832,0.0918 4.9642735,7.7367506 0 0 1 0.2793,0.11523 4.9642735,7.7367506 0 0 1 0.27344,0.14258 4.9642735,7.7367506 0 0 1 0.26953,0.16602 4.9642735,7.7367506 0 0 1 0.26172,0.18945 4.9642735,7.7367506 0 0 1 0.25391,0.21484 4.9642735,7.7367506 0 0 1 0.24609,0.23633 4.9642735,7.7367506 0 0 1 0.23633,0.25781 4.9642735,7.7367506 0 0 1 0.22656,0.2793 4.9642735,7.7367506 0 0 1 0.2168,0.29883 4.9642735,7.7367506 0 0 1 0.20312,0.31836 4.9642735,7.7367506 0 0 1 0.19141,0.33594 4.9642735,7.7367506 0 0 1 0.17969,0.35351 4.9642735,7.7367506 0 0 1 0.16601,0.36914 4.9642735,7.7367506 0 0 1 0.15235,0.38281 4.9642735,7.7367506 0 0 1 0.13671,0.39649 4.9642735,7.7367506 0 0 1 0.1211,0.4082 4.9642735,7.7367506 0 0 1 0.10742,0.41797 4.9642735,7.7367506 0 0 1 0.0898,0.42773 4.9642735,7.7367506 0 0 1 0.0762,0.4336 4.9642735,7.7367506 0 0 1 0.0566,0.4414 4.9642735,7.7367506 0 0 1 0.043,0.44532 4.9642735,7.7367506 0 0 1 0.0254,0.44922 4.9642735,7.7367506 0 0 1 0.008,0.44922 4.9642735,7.7367506 0 0 1 -0.0762,1.34374 4.9642735,7.7367506 0 0 1 -0.22266,1.30274 4.9642735,7.7367506 0 0 1 -0.36719,1.22266 4.9642735,7.7367506 0 0 1 -0.49609,1.10351 4.9642735,7.7367506 0 0 1 -0.61133,0.95313 4.9642735,7.7367506 0 0 1 -0.70898,0.77343 4.9642735,7.7367506 0 0 1 -0.78516,0.57032 4.9642735,7.7367506 0 0 1 -0.83594,0.34961 4.9642735,7.7367506 0 0 1 -0.86133,0.11718 4.9642735,7.7367506 0 0 1 -0.86132,-0.11718 4.9642735,7.7367506 0 0 1 -0.83594,-0.34961 4.9642735,7.7367506 0 0 1 -0.78516,-0.57032 4.9642735,7.7367506 0 0 1 -0.70898,-0.77343 4.9642735,7.7367506 0 0 1 -0.61133,-0.95313 4.9642735,7.7367506 0 0 1 -0.49609,-1.10351 4.9642735,7.7367506 0 0 1 -0.36719,-1.22266 4.9642735,7.7367506 0 0 1 -0.22266,-1.30274 4.9642735,7.7367506 0 0 1 -0.0762,-1.34374 4.9642735,7.7367506 0 0 1 0.0762,-1.34376 4.9642735,7.7367506 0 0 1 0.22266,-1.30273 4.9642735,7.7367506 0 0 1 0.36523,-1.22266 4.9642735,7.7367506 0 0 1 0.49805,-1.10546 4.9642735,7.7367506 0 0 1 0.61133,-0.95313 4.9642735,7.7367506 0 0 1 0.70898,-0.77344 4.9642735,7.7367506 0 0 1 0.78321,-0.57031 4.9642735,7.7367506 0 0 1 0.83789,-0.34961 4.9642735,7.7367506 0 0 1 0.86132,-0.11719 z" />
    <path
       id="path770"
       style="font-style:normal;font-variant:normal;font-weight:bold;font-stretch:normal;font-size:155.867px;font-family:'Aesthetic Iosevka Original';-inkscape-font-specification:'Aesthetic Iosevka Original Bold';mix-blend-mode:normal;fill:url(#linearGradient1376);fill-opacity:1;stroke-width:1.38575"
       d="m 464.68164,358.87109 v 2.30664 l 16.08789,12.45508 v 81.73633 h 10.5625 v -83.11719 c 0,-0.29443 -0.15153,-0.53125 -0.33789,-0.53125 h -8.38281 l -16.59766,-12.84961 z m -289.77148,15.19922 c -0.19711,0 -0.35547,0.28726 -0.35547,0.64453 v 21.69727 c 0,0.35728 0.15836,0.64453 0.35547,0.64453 h 35.98437 c 0.19711,0 0.35547,-0.28725 0.35547,-0.64453 v -21.69727 c 0,-0.35727 -0.15836,-0.64453 -0.35547,-0.64453 z m 6.14257,5.48242 h 18.71094 c 0.0343,0 0.0666,0.007 0.0996,0.0117 a 6,6 0 0 1 0.375,0.0137 6,6 0 0 1 0.375,0.0371 6,6 0 0 1 0.36914,0.0605 6,6 0 0 1 0.36719,0.084 6,6 0 0 1 0.35937,0.10742 6,6 0 0 1 0.35352,0.12695 6,6 0 0 1 0.34375,0.15234 6,6 0 0 1 0.33398,0.17188 6,6 0 0 1 0.32227,0.19141 6,6 0 0 1 0.31055,0.21289 6,6 0 0 1 0.29687,0.23046 6,6 0 0 1 0.2793,0.25 6,6 0 0 1 0.26562,0.26563 6,6 0 0 1 0.24805,0.2832 6,6 0 0 1 0.22852,0.29688 6,6 0 0 1 0.21093,0.31055 6,6 0 0 1 0.19141,0.32421 6,6 0 0 1 0.16992,0.33399 6,6 0 0 1 0.14844,0.3457 6,6 0 0 1 0.12695,0.35352 6,6 0 0 1 0.10352,0.36132 6,6 0 0 1 0.082,0.36524 6,6 0 0 1 0.0586,0.37109 6,6 0 0 1 0.0352,0.375 6,6 0 0 1 0.0117,0.375 6,6 0 0 1 -0.0918,1.04102 6,6 0 0 1 -0.26953,1.01172 6,6 0 0 1 -0.44336,0.94726 6,6 0 0 1 -0.59961,0.85743 6,6 0 0 1 -0.73828,0.73828 6,6 0 0 1 -0.85742,0.59961 6,6 0 0 1 -0.94727,0.44335 6,6 0 0 1 -1.01172,0.26954 6,6 0 0 1 -1.04101,0.0918 6,6 0 0 1 -0.16016,-0.0117 h -18.61719 c -0.0544,0 -0.10697,-0.007 -0.1582,-0.0195 -0.0512,-0.0128 -0.10143,-0.0323 -0.14844,-0.0566 -0.047,-0.0243 -0.0911,-0.0533 -0.13281,-0.0879 -0.0418,-0.0346 -0.0817,-0.0736 -0.11719,-0.11719 -0.0355,-0.0435 -0.0676,-0.0913 -0.0957,-0.14257 -0.0281,-0.0512 -0.0525,-0.10645 -0.0723,-0.16407 -0.0198,-0.0576 -0.0345,-0.11891 -0.0449,-0.18164 -0.0104,-0.0627 -0.0156,-0.1268 -0.0156,-0.19336 v -10.07617 c 0,-0.0666 0.005,-0.13068 0.0156,-0.19336 0.0104,-0.0627 0.0251,-0.12411 0.0449,-0.18164 0.0198,-0.0575 0.0441,-0.111 0.0723,-0.16211 0.0282,-0.0511 0.0602,-0.0992 0.0957,-0.14258 0.0355,-0.0434 0.0754,-0.0827 0.11719,-0.11718 0.0418,-0.0345 0.0858,-0.0636 0.13281,-0.0879 0.047,-0.0242 0.0972,-0.0439 0.14844,-0.0566 0.0512,-0.0128 0.10378,-0.0195 0.1582,-0.0195 z m 197.15235,13.88868 c -0.28441,0 -0.51367,0.25523 -0.51367,0.57226 v 60.92969 c 0,0.31703 0.22926,0.57226 0.51367,0.57226 h 2.2832 c 0.28441,10e-6 0.51172,-0.25523 0.51172,-0.57226 v -60.92969 c 0,-0.31703 -0.22731,-0.57226 -0.51172,-0.57226 z m -125.91797,7.33984 c -1.662,0 -3,1.338 -3,3 v 37.57031 c 0,1.662 1.338,3 3,3 h 39.60351 c 1.662,0 3,-1.338 3,-3 v -37.57031 c 0,-1.662 -1.338,-3 -3,-3 z m 280.88281,1.58008 c -1.662,0 -3,1.338 -3,3 v 37.57031 c 0,1.662 1.338,3 3,3 h 39.60352 c 1.662,0 3,-1.338 3,-3 v -37.57031 c 0,-1.662 -1.338,-3 -3,-3 z m 73.15235,1.16797 c -0.16911,0 -0.30665,0.25509 -0.30665,0.57226 v 14.61133 c 0,0.31718 0.13754,0.57422 0.30665,0.57422 h 23.4375 c 0.1691,0 0.30664,-0.25704 0.30664,-0.57422 v -14.61133 c 0,-0.31717 -0.13754,-0.57226 -0.30664,-0.57226 z m -168.67774,1.92968 c -0.17666,0 -0.31836,0.28756 -0.31836,0.64258 v 38.42383 c 0,0.35503 0.1417,0.64063 0.31836,0.64063 h 27.19531 c 0.17666,0 0.31836,-0.2856 0.31836,-0.64063 v -38.42383 c 0,-0.35502 -0.1417,-0.64258 -0.31836,-0.64258 z m -98.57226,0.72657 c -6.2291,0 -12.45791,0.1485 -12.77735,0.44531 -0.63888,0.59362 11.49958,11.87305 12.77735,11.87305 1.27776,0 13.41622,-11.27943 12.77734,-11.87305 -0.31944,-0.29681 -6.54825,-0.44531 -12.77734,-0.44531 z m -164.26954,5.97851 c -0.19895,0 -0.35937,0.28921 -0.35937,0.64649 v 25.59179 c 0,0.35728 0.16042,0.64453 0.35937,0.64454 h 39.2793 c 0.19896,0 0.35938,-0.28726 0.35938,-0.64454 v -25.59179 c 0,-0.35728 -0.16042,-0.64649 -0.35938,-0.64649 z m 276.31836,0.56055 a 7.9858642,12.445857 0 0 1 0.35743,0.0117 7.9858642,12.445857 0 0 1 0.35937,0.0391 7.9858642,12.445857 0 0 1 0.35547,0.0625 7.9858642,12.445857 0 0 1 0.35352,0.0859 7.9858642,12.445857 0 0 1 0.35156,0.11328 7.9858642,12.445857 0 0 1 0.34765,0.13672 7.9858642,12.445857 0 0 1 0.34375,0.16015 7.9858642,12.445857 0 0 1 0.33789,0.1836 7.9858642,12.445857 0 0 1 0.33204,0.20898 7.9858642,12.445857 0 0 1 0.32617,0.23047 7.9858642,12.445857 0 0 1 0.32031,0.25391 7.9858642,12.445857 0 0 1 0.31055,0.27539 7.9858642,12.445857 0 0 1 0.30468,0.29687 7.9858642,12.445857 0 0 1 0.29493,0.31836 7.9858642,12.445857 0 0 1 0.28515,0.33789 7.9858642,12.445857 0 0 1 0.27344,0.35938 7.9858642,12.445857 0 0 1 0.26562,0.37695 7.9858642,12.445857 0 0 1 0.25391,0.39453 7.9858642,12.445857 0 0 1 0.24024,0.41211 7.9858642,12.445857 0 0 1 0.23046,0.42774 7.9858642,12.445857 0 0 1 0.2168,0.44531 7.9858642,12.445857 0 0 1 0.20508,0.45898 7.9858642,12.445857 0 0 1 0.18945,0.47266 7.9858642,12.445857 0 0 1 0.17774,0.48633 7.9858642,12.445857 0 0 1 0.16211,0.49804 7.9858642,12.445857 0 0 1 0.14843,0.50782 7.9858642,12.445857 0 0 1 0.13282,0.51953 7.9858642,12.445857 0 0 1 0.11914,0.52734 7.9858642,12.445857 0 0 1 0.10351,0.53516 7.9858642,12.445857 0 0 1 0.0879,0.54101 7.9858642,12.445857 0 0 1 0.0703,0.54688 7.9858642,12.445857 0 0 1 0.0566,0.55273 7.9858642,12.445857 0 0 1 0.041,0.55469 7.9858642,12.445857 0 0 1 0.0234,0.55664 7.9858642,12.445857 0 0 1 0.008,0.5586 7.9858642,12.445857 0 0 1 -0.0684,1.625 7.9858642,12.445857 0 0 1 -0.20312,1.5957 7.9858642,12.445857 0 0 1 -0.33594,1.54297 7.9858642,12.445857 0 0 1 -0.46289,1.45898 7.9858642,12.445857 0 0 1 -0.58008,1.35352 7.9858642,12.445857 0 0 1 -0.68945,1.22461 7.9858642,12.445857 0 0 1 -0.78516,1.07226 7.9858642,12.445857 0 0 1 -0.86914,0.9043 7.9858642,12.445857 0 0 1 -0.93555,0.7207 7.9858642,12.445857 0 0 1 -0.99023,0.52344 7.9858642,12.445857 0 0 1 -1.02344,0.31836 7.9858642,12.445857 0 0 1 -1.04297,0.10547 7.9858642,12.445857 0 0 1 -1.04297,-0.10547 7.9858642,12.445857 0 0 1 -1.02343,-0.31836 7.9858642,12.445857 0 0 1 -0.99024,-0.52344 7.9858642,12.445857 0 0 1 -0.93554,-0.7207 7.9858642,12.445857 0 0 1 -0.86914,-0.9043 7.9858642,12.445857 0 0 1 -0.78516,-1.07226 7.9858642,12.445857 0 0 1 -0.68945,-1.22461 7.9858642,12.445857 0 0 1 -0.58008,-1.35352 7.9858642,12.445857 0 0 1 -0.46289,-1.45898 7.9858642,12.445857 0 0 1 -0.33594,-1.54297 7.9858642,12.445857 0 0 1 -0.20313,-1.5957 7.9858642,12.445857 0 0 1 -0.0684,-1.625 7.9858642,12.445857 0 0 1 0.0684,-1.625 7.9858642,12.445857 0 0 1 0.20313,-1.59571 7.9858642,12.445857 0 0 1 0.33594,-1.54297 7.9858642,12.445857 0 0 1 0.46289,-1.46093 7.9858642,12.445857 0 0 1 0.58008,-1.35352 7.9858642,12.445857 0 0 1 0.6875,-1.22266 7.9858642,12.445857 0 0 1 0.78711,-1.07421 7.9858642,12.445857 0 0 1 0.86718,-0.9043 7.9858642,12.445857 0 0 1 0.9375,-0.7207 7.9858642,12.445857 0 0 1 0.99024,-0.52344 7.9858642,12.445857 0 0 1 1.02343,-0.31836 7.9858642,12.445857 0 0 1 1.04297,-0.10547 z m -179.00586,2.78711 a 7.9302597,7.9302597 0 0 1 7.92969,7.92969 7.9302597,7.9302597 0 0 1 -7.92969,7.93164 7.9302597,7.9302597 0 0 1 -7.92968,-7.93164 7.9302597,7.9302597 0 0 1 7.92968,-7.92969 z m 280.88282,1.58008 a 7.9302597,7.9302597 0 0 1 7.92968,7.92968 7.9302597,7.9302597 0 0 1 -7.92968,7.93164 7.9302597,7.9302597 0 0 1 -7.92969,-7.93164 7.9302597,7.9302597 0 0 1 7.92969,-7.92968 z m -372.21875,0.22265 h 20.42968 c 0.0374,0 0.0733,0.0106 0.10938,0.0176 a 6.551664,8.2934899 0 0 1 0.37891,0.0156 6.551664,8.2934899 0 0 1 0.3789,0.0449 6.551664,8.2934899 0 0 1 0.375,0.0723 6.551664,8.2934899 0 0 1 0.37305,0.0996 6.551664,8.2934899 0 0 1 0.36523,0.125 6.551664,8.2934899 0 0 1 0.35938,0.1543 6.551664,8.2934899 0 0 1 0.35351,0.17969 6.551664,8.2934899 0 0 1 0.34375,0.20508 6.551664,8.2934899 0 0 1 0.33399,0.22851 6.551664,8.2934899 0 0 1 0.32226,0.25391 6.551664,8.2934899 0 0 1 0.31055,0.27734 6.551664,8.2934899 0 0 1 0.29688,0.29883 6.551664,8.2934899 0 0 1 0.2832,0.32031 6.551664,8.2934899 0 0 1 0.26758,0.3418 6.551664,8.2934899 0 0 1 0.25195,0.35937 6.551664,8.2934899 0 0 1 0.23438,0.37891 6.551664,8.2934899 0 0 1 0.21679,0.39453 6.551664,8.2934899 0 0 1 0.19922,0.4082 6.551664,8.2934899 0 0 1 0.17969,0.42383 6.551664,8.2934899 0 0 1 0.16015,0.43555 6.551664,8.2934899 0 0 1 0.13868,0.44727 6.551664,8.2934899 0 0 1 0.11914,0.45703 6.551664,8.2934899 0 0 1 0.0976,0.46484 6.551664,8.2934899 0 0 1 0.0762,0.4707 6.551664,8.2934899 0 0 1 0.0547,0.47657 6.551664,8.2934899 0 0 1 0.0332,0.47851 6.551664,8.2934899 0 0 1 0.0117,0.48047 6.551664,8.2934899 0 0 1 -0.0117,0.48242 6.551664,8.2934899 0 0 1 -0.0332,0.48047 6.551664,8.2934899 0 0 1 -0.0547,0.47656 6.551664,8.2934899 0 0 1 -0.0762,0.47266 6.551664,8.2934899 0 0 1 -0.0996,0.4668 6.551664,8.2934899 0 0 1 -0.11914,0.45703 6.551664,8.2934899 0 0 1 -0.14062,0.44922 6.551664,8.2934899 0 0 1 -0.16211,0.43554 6.551664,8.2934899 0 0 1 -0.17969,0.42578 6.551664,8.2934899 0 0 1 -0.20117,0.41016 6.551664,8.2934899 0 0 1 -0.21875,0.39453 6.551664,8.2934899 0 0 1 -0.23633,0.37891 6.551664,8.2934899 0 0 1 -0.25195,0.36133 6.551664,8.2934899 0 0 1 -0.26953,0.33984 6.551664,8.2934899 0 0 1 -0.28516,0.32227 6.551664,8.2934899 0 0 1 -0.29883,0.29882 6.551664,8.2934899 0 0 1 -0.3125,0.27539 6.551664,8.2934899 0 0 1 -0.32422,0.25391 6.551664,8.2934899 0 0 1 -0.33593,0.22852 6.551664,8.2934899 0 0 1 -0.34571,0.20507 6.551664,8.2934899 0 0 1 -0.35351,0.17774 6.551664,8.2934899 0 0 1 -0.36133,0.15234 6.551664,8.2934899 0 0 1 -0.36914,0.125 6.551664,8.2934899 0 0 1 -0.37305,0.0977 6.551664,8.2934899 0 0 1 -0.37695,0.0684 6.551664,8.2934899 0 0 1 -0.37891,0.043 6.551664,8.2934899 0 0 1 -0.38086,0.0137 6.551664,8.2934899 0 0 1 -0.17578,-0.0156 H 180.7793 c -0.0594,0 -0.11789,-0.01 -0.17383,-0.0273 -0.0559,-0.0177 -0.11078,-0.0445 -0.16211,-0.0781 -0.0513,-0.0336 -0.0989,-0.0752 -0.14453,-0.12305 -0.0456,-0.0478 -0.0882,-0.10193 -0.12695,-0.16211 -0.0387,-0.0602 -0.0747,-0.12452 -0.10547,-0.19531 -0.0307,-0.0708 -0.0565,-0.14693 -0.0781,-0.22657 -0.0216,-0.0796 -0.0375,-0.16329 -0.0488,-0.25 -0.0114,-0.0867 -0.0176,-0.17753 -0.0176,-0.26953 v -13.92773 c 0,-0.092 0.006,-0.18095 0.0176,-0.26758 0.0114,-0.0866 0.0272,-0.17049 0.0488,-0.25 0.0216,-0.0795 0.0474,-0.15592 0.0781,-0.22656 0.0307,-0.0706 0.0667,-0.1353 0.10547,-0.19532 0.0387,-0.06 0.0814,-0.11447 0.12695,-0.1621 0.0456,-0.0476 0.0932,-0.0895 0.14453,-0.12305 0.0513,-0.0335 0.10617,-0.0585 0.16211,-0.0762 0.0559,-0.0176 0.1144,-0.0273 0.17383,-0.0273 z m 158.29297,13.74219 c -1.27777,0 -13.41623,11.27942 -12.77735,11.87305 0.63888,0.59362 24.91581,0.59362 25.55469,0 0.63888,-0.59363 -11.49958,-11.87305 -12.77734,-11.87305 z" />
    <path
       id="text259"
       style="font-style:normal;font-variant:normal;font-weight:bold;font-stretch:normal;font-size:155.867px;font-family:'Aesthetic Iosevka Original';-inkscape-font-specification:'Aesthetic Iosevka Original Bold';fill:#000000;stroke-width:1.16901"
       d="m 482.49218,371.78906 h 8.74024 v 83.56837 h 20.22656 v -83.56837 h 26.54688 V 358.87305 H 465.8086 Z" />
    <path
       id="path772"
       style="font-style:normal;font-variant:normal;font-weight:bold;font-stretch:normal;font-size:155.867px;font-family:'Aesthetic Iosevka Original';-inkscape-font-specification:'Aesthetic Iosevka Original Bold';fill:#000000;stroke-width:1.16901"
       d="m 464.68554,360.81836 v 10.9707 h 14.16993 z" />
    <path
       d="m 232.98559,426.94004 c 0,-9.59997 -5.19999,-17.19995 -16.13329,-23.59994 9.59997,-6.13331 13.3333,-11.7333 13.3333,-19.99995 0,-8.93331 -6.13332,-25.59993 -31.73325,-25.59993 h -43.33323 v 97.19975 h 43.73323 c 27.33326,0 34.13324,-16.39996 34.13324,-27.99993 z m -57.86652,-52.5332 h 21.73328 c 9.19998,0 14.1333,3.86666 14.1333,11.06664 0,7.06665 -4.93332,10.93331 -14.1333,10.93331 h -21.73328 z m 0,38.66657 h 23.86661 c 9.73331,0 14.79996,4.39999 14.79996,12.66664 0,8.13331 -5.06665,12.5333 -14.79996,12.5333 h -23.86661 z"
       style="font-weight:bold;font-size:133.333px;-inkscape-font-specification:'sans-serif Bold'"
       id="path827" />
    <path
       d="m 592.20737,477.54662 q -3.44955,0 -7.02686,-0.6388 -3.44954,-0.63881 -6.51581,-2.2997 -3.06626,-1.66089 -5.49372,-4.21611 -2.42746,-2.55522 -3.96059,-5.74925 -1.53313,-3.19402 -2.17194,-6.64357 -0.51104,-3.57731 -0.51104,-7.02685 v -15.33132 q 0,-3.44955 0.51104,-6.8991 0.63881,-3.57731 2.04418,-6.64357 1.53313,-3.19403 3.83283,-5.74925 2.42746,-2.68298 5.49372,-4.34387 3.06626,-1.66089 6.51581,-2.2997 3.57731,-0.6388 7.02686,-0.6388 3.44954,0 6.89909,0.6388 3.57731,0.63881 6.64357,2.2997 3.06627,1.66089 5.36597,4.34387 2.42745,2.55522 3.83283,5.74925 1.53313,3.06626 2.04417,6.64357 0.63881,3.44955 0.63881,6.8991 v 13.79818 h -36.66741 v 1.53314 q 0,2.55522 0.51104,5.2382 0.63881,2.55522 2.04418,4.72715 1.53313,2.04418 3.96059,3.19403 2.42746,1.14985 4.98268,1.14985 1.91641,0 3.70507,-0.38329 1.91641,-0.38328 3.44955,-1.40537 1.53313,-1.02208 2.42745,-2.68298 1.02209,-1.66089 1.14985,-3.57731 h 14.18147 q -0.12776,3.06627 -1.14984,5.87701 -0.89433,2.81074 -2.68299,5.36596 -1.66089,2.42746 -4.08835,4.21612 -2.42746,1.78865 -5.2382,2.9385 -2.81074,1.14985 -5.74924,1.53313 -2.93851,0.38328 -6.00477,0.38328 z m -11.49849,-40.37247 h 22.48594 v -1.53313 q 0,-2.55522 -0.51105,-5.11044 -0.51104,-2.55522 -2.04417,-4.72716 -1.40538,-2.17194 -3.83283,-3.32179 -2.2997,-1.14985 -4.85492,-1.14985 -2.55522,0 -4.98268,1.14985 -2.2997,1.14985 -3.83283,3.32179 -1.40537,2.17194 -1.91642,4.72716 -0.51104,2.55522 -0.51104,5.11044 z"
       id="path830"
       style="font-weight:bold;font-size:127.761px;font-family:'Aesthetic Iosevka Original';-inkscape-font-specification:'Aesthetic Iosevka Original Bold';stroke-width:0.958212"
       transform="scale(1.0436099,0.95821245)" />
    <path
       id="path457-8"
       style="fill:#000000;stroke-width:2.54479"
       d="m 272.11603,390.62353 a 32.83506,32.83506 0 0 0 -32.83874,32.83874 32.83506,32.83506 0 0 0 32.83874,32.83375 32.83506,32.83506 0 0 0 32.83375,-32.83375 32.83506,32.83506 0 0 0 -32.83375,-32.83874 z m 0,12.67924 a 20.156681,20.156681 0 0 1 20.15454,20.1595 20.156681,20.156681 0 0 1 -20.15454,20.15454 20.156681,20.156681 0 0 1 -20.15953,-20.15454 20.156681,20.156681 0 0 1 20.15953,-20.1595 z" />
    <path
       id="rect433-2-1-2-5"
       style="stroke-width:1.96463"
       d="m 54.07078,-502.69394 c 1.355827,1.33093 3.231968,2.15032 5.309779,2.15032 4.155623,0 7.501455,-3.28377 7.501455,-7.36306 l -4.95e-4,-26.00551 26.006883,-0.0192 c 4.079286,-0.003 7.360698,-3.35104 7.357758,-7.50665 -0.003,-4.15563 -3.289275,-7.49877 -7.368561,-7.49589 l -25.995834,0.0192 -4.92e-4,-25.99723 c 0,-4.07929 -3.345464,-7.36327 -7.501087,-7.36327 -4.155621,0 -7.500073,3.28515 -7.500073,7.36444 l -8.85e-4,26.00689 -26.005502,0.0179 c -4.079287,0.003 -7.362075,3.34965 -7.359142,7.50527 0.0029,4.15562 3.289277,7.49877 7.368563,7.49589 l 25.997216,-0.0179 -8.9e-4,25.99585 c 0,2.03964 0.835479,3.88203 2.191307,5.21295 z"
       transform="matrix(-0.70729198,0.70692153,-0.70679283,-0.7074206,0,0)" />
    <path
       id="path457"
       style="fill:#000000"
       d="m 272.11451,410.55645 a 12.902854,12.902854 0 0 0 -12.9043,12.9043 12.902854,12.902854 0 0 0 12.9043,12.90234 12.902854,12.902854 0 0 0 12.90234,-12.90234 12.902854,12.902854 0 0 0 -12.90234,-12.9043 z m 0,4.98243 a 7.9207625,7.9207625 0 0 1 7.91992,7.92188 7.9207625,7.9207625 0 0 1 -7.91992,7.91991 7.9207625,7.9207625 0 0 1 -7.92188,-7.91991 7.9207625,7.9207625 0 0 1 7.92188,-7.92188 z" />
    <path
       id="path457-8-6"
       style="fill:#000000;stroke-width:2.54479"
       d="m 552.99845,392.2037 a 32.83506,32.83506 0 0 0 -32.83874,32.83874 32.83506,32.83506 0 0 0 32.83874,32.83375 32.83506,32.83506 0 0 0 32.83375,-32.83375 32.83506,32.83506 0 0 0 -32.83375,-32.83874 z m 0,12.67924 a 20.156681,20.156681 0 0 1 20.15454,20.1595 20.156681,20.156681 0 0 1 -20.15454,20.15454 20.156681,20.156681 0 0 1 -20.15953,-20.15454 20.156681,20.156681 0 0 1 20.15953,-20.1595 z" />
    <path
       id="path457-1"
       style="fill:#000000"
       d="m 552.99693,412.13662 a 12.902854,12.902854 0 0 0 -12.9043,12.9043 12.902854,12.902854 0 0 0 12.9043,12.90234 12.902854,12.902854 0 0 0 12.90234,-12.90234 12.902854,12.902854 0 0 0 -12.90234,-12.9043 z m 0,4.98243 a 7.9207625,7.9207625 0 0 1 7.91992,7.92188 7.9207625,7.9207625 0 0 1 -7.91992,7.91991 7.9207625,7.9207625 0 0 1 -7.92188,-7.91991 7.9207625,7.9207625 0 0 1 7.92188,-7.92188 z" />
    <path
       id="text267"
       style="font-style:normal;font-variant:normal;font-weight:bold;font-stretch:normal;font-size:114.937px;font-family:'Aesthetic Iosevka Original';-inkscape-font-specification:'Aesthetic Iosevka Original Bold';fill:#000000;stroke-width:0.862032"
       d="m 464.73633,371.73633 v 29.76758 c -4.02279,-6.2066 -9.42618,-9.08008 -17.12695,-9.08008 -14.82686,0 -26.08985,14.25357 -26.08985,32.98828 0,18.16003 10.45843,32.75586 26.08985,32.75586 7.70077,0 13.10416,-2.87319 17.12695,-8.96485 v 6.32227 h 16.08984 v -81.84961 l -2.5039,-1.93945 z m -52.06641,20.6875 c -7.35596,0 -13.79213,4.82836 -17.24023,13.21875 v -12.1836 h -16.0918 v 62.06641 h 16.0918 v -32.98828 c 0,-9.42482 4.71189,-14.13672 14.13672,-14.13672 1.72405,0 2.87284,0.11417 5.05664,0.45899 v -16.32032 c -0.9195,-0.11493 -1.49338,-0.11523 -1.95313,-0.11523 z m 38.50391,13.44726 c 8.16052,0 13.5625,7.93104 13.5625,19.76953 0,11.26382 -5.51692,19.08008 -13.5625,19.08008 -8.04558,0 -13.5625,-7.92984 -13.5625,-19.30859 0,-11.49369 5.51692,-19.54102 13.5625,-19.54102 z" />
    <path
       id="path1358"
       style="fill:#000000;stroke-width:0.782156"
       d="m 617.99059,407.4757 a 7.6636598,8.7970276 0 0 0 -7.62545,8.18194 h 15.268 a 7.6636598,8.7970276 0 0 0 -7.64255,-8.18194 z" />
    <path
       id="path1401"
       style="fill:#000000;stroke-width:1.00241"
       d="m 180.26758,379.55273 v 0.96094 10.07617 0.97461 h 19.5625 a 6,6 0 0 0 1.04101,-0.0918 6,6 0 0 0 1.01172,-0.26954 6,6 0 0 0 0.94727,-0.44335 6,6 0 0 0 0.85742,-0.59961 6,6 0 0 0 0.73828,-0.73828 6,6 0 0 0 0.59961,-0.85743 6,6 0 0 0 0.44336,-0.94726 6,6 0 0 0 0.26953,-1.01172 6,6 0 0 0 0.0918,-1.04102 v -0.10156 a 6,6 0 0 0 -0.002,-0.0117 6,6 0 0 0 0,-0.002 6,6 0 0 0 0,-0.002 6,6 0 0 0 0,-0.002 6,6 0 0 0 0,-0.002 6,6 0 0 0 0,-0.002 6,6 0 0 0 0,-0.002 6,6 0 0 0 0,-0.002 6,6 0 0 0 0,-0.002 6,6 0 0 0 0,-0.002 6,6 0 0 0 0,-0.002 6,6 0 0 0 0,-0.002 6,6 0 0 0 0,-0.002 6,6 0 0 0 0,-0.002 6,6 0 0 0 0,-0.002 6,6 0 0 0 0,-0.002 6,6 0 0 0 0,-0.002 6,6 0 0 0 0,-0.002 6,6 0 0 0 0,-0.002 6,6 0 0 0 0,-0.002 6,6 0 0 0 0,-0.002 6,6 0 0 0 0,-0.002 6,6 0 0 0 0,-0.002 6,6 0 0 0 0,-0.002 6,6 0 0 0 0,-0.002 6,6 0 0 0 0,-0.002 6,6 0 0 0 0,-0.002 6,6 0 0 0 0,-0.002 6,6 0 0 0 0,-0.002 6,6 0 0 0 0,-0.002 6,6 0 0 0 0,-0.002 6,6 0 0 0 0,-0.002 6,6 0 0 0 0,-0.002 6,6 0 0 0 0,-0.002 6,6 0 0 0 0,-0.002 6,6 0 0 0 0,-0.002 6,6 0 0 0 -0.002,-0.0117 6,6 0 0 0 0,-0.002 6,6 0 0 0 0,-0.002 6,6 0 0 0 0,-0.002 6,6 0 0 0 0,-0.002 6,6 0 0 0 0,-0.002 6,6 0 0 0 0,-0.002 6,6 0 0 0 0,-0.002 6,6 0 0 0 0,-0.002 6,6 0 0 0 0,-0.002 6,6 0 0 0 0,-0.002 6,6 0 0 0 0,-0.002 6,6 0 0 0 0,-0.002 6,6 0 0 0 0,-0.002 6,6 0 0 0 0,-0.002 6,6 0 0 0 0,-0.002 6,6 0 0 0 0,-0.002 6,6 0 0 0 0,-0.002 6,6 0 0 0 0,-0.002 6,6 0 0 0 0,-0.002 6,6 0 0 0 0,-0.002 6,6 0 0 0 0,-0.002 6,6 0 0 0 0,-0.002 6,6 0 0 0 0,-0.002 6,6 0 0 0 -0.002,-0.0117 6,6 0 0 0 0,-0.002 6,6 0 0 0 0,-0.002 6,6 0 0 0 0,-0.002 6,6 0 0 0 0,-0.002 6,6 0 0 0 0,-0.002 6,6 0 0 0 0,-0.002 6,6 0 0 0 0,-0.002 6,6 0 0 0 0,-0.002 6,6 0 0 0 0,-0.002 6,6 0 0 0 0,-0.002 6,6 0 0 0 0,-0.002 6,6 0 0 0 0,-0.002 6,6 0 0 0 0,-0.002 6,6 0 0 0 0,-0.002 6,6 0 0 0 0,-0.002 6,6 0 0 0 0,-0.002 6,6 0 0 0 0,-0.002 6,6 0 0 0 -0.002,-0.0117 6,6 0 0 0 0,-0.002 6,6 0 0 0 0,-0.002 6,6 0 0 0 0,-0.002 6,6 0 0 0 0,-0.002 6,6 0 0 0 0,-0.002 6,6 0 0 0 0,-0.002 6,6 0 0 0 0,-0.002 6,6 0 0 0 0,-0.002 6,6 0 0 0 0,-0.002 6,6 0 0 0 0,-0.002 6,6 0 0 0 0,-0.002 6,6 0 0 0 0,-0.002 6,6 0 0 0 -0.002,-0.0117 6,6 0 0 0 0,-0.002 6,6 0 0 0 0,-0.002 6,6 0 0 0 0,-0.002 6,6 0 0 0 0,-0.002 6,6 0 0 0 0,-0.002 6,6 0 0 0 0,-0.002 6,6 0 0 0 0,-0.002 6,6 0 0 0 0,-0.002 6,6 0 0 0 0,-0.002 6,6 0 0 0 0,-0.002 6,6 0 0 0 0,-0.002 6,6 0 0 0 -0.002,-0.0117 6,6 0 0 0 0,-0.002 6,6 0 0 0 0,-0.002 6,6 0 0 0 0,-0.002 6,6 0 0 0 0,-0.002 6,6 0 0 0 0,-0.002 6,6 0 0 0 0,-0.002 6,6 0 0 0 -0.0352,-0.375 6,6 0 0 0 -0.0586,-0.37109 6,6 0 0 0 -0.082,-0.36524 6,6 0 0 0 -0.10352,-0.36132 6,6 0 0 0 -0.12695,-0.35352 6,6 0 0 0 -0.14844,-0.3457 6,6 0 0 0 -0.16992,-0.33399 6,6 0 0 0 -0.19141,-0.32421 6,6 0 0 0 -0.21093,-0.31055 6,6 0 0 0 -0.22852,-0.29688 6,6 0 0 0 -0.24805,-0.2832 6,6 0 0 0 -0.26562,-0.26563 6,6 0 0 0 -0.2793,-0.25 6,6 0 0 0 -0.29687,-0.23046 6,6 0 0 0 -0.31055,-0.21289 6,6 0 0 0 -0.32227,-0.19141 6,6 0 0 0 -0.33398,-0.17188 6,6 0 0 0 -0.34375,-0.15234 6,6 0 0 0 -0.35352,-0.12695 6,6 0 0 0 -0.35937,-0.10742 6,6 0 0 0 -0.36719,-0.084 6,6 0 0 0 -0.36914,-0.0605 6,6 0 0 0 -0.375,-0.0371 6,6 0 0 0 -0.375,-0.0137 c -0.0331,-0.005 -0.0654,-0.0117 -0.0996,-0.0117 h -18.71094 c -0.0544,0 -0.10697,0.007 -0.1582,0.0195 0.0448,-0.0112 0.0915,-0.0181 0.13867,-0.0195 z m 2.60742,1.69727 15.86914,0.002 c 0.0291,0 0.056,0.005 0.084,0.008 a 5.0886366,4.3042562 0 0 1 0.41993,0.0156 5.0886366,4.3042562 0 0 1 0.41406,0.0449 5.0886366,4.3042562 0 0 1 0.41211,0.0742 5.0886366,4.3042562 0 0 1 0.39844,0.10352 5.0886366,4.3042562 0 0 1 0.39062,0.13086 5.0886366,4.3042562 0 0 1 0.37695,0.1582 5.0886366,4.3042562 0 0 1 0.35743,0.18164 5.0886366,4.3042562 0 0 1 0.34179,0.20703 5.0886366,4.3042562 0 0 1 0.31836,0.23047 5.0886366,4.3042562 0 0 1 0.29688,0.25 5.0886366,4.3042562 0 0 1 0.27148,0.27148 5.0886366,4.3042562 0 0 1 0.24024,0.28907 5.0886366,4.3042562 0 0 1 0.21289,0.30468 5.0886366,4.3042562 0 0 1 0.18359,0.31836 5.0886366,4.3042562 0 0 1 0.15234,0.33008 5.0886366,4.3042562 0 0 1 0.11915,0.3418 5.0886366,4.3042562 0 0 1 0.0859,0.34766 5.0886366,4.3042562 0 0 1 0.0508,0.3496 5.0886366,4.3042562 0 0 1 0.0176,0.35547 5.0886366,4.3042562 0 0 1 -0.12695,0.95703 5.0886366,4.3042562 0 0 1 -0.37695,0.90821 5.0886366,4.3042562 0 0 1 -0.60547,0.8164 5.0886366,4.3042562 0 0 1 -0.8086,0.68164 5.0886366,4.3042562 0 0 1 -0.96484,0.51172 5.0886366,4.3042562 0 0 1 -1.07422,0.31836 5.0886366,4.3042562 0 0 1 -1.13086,0.10938 5.0886366,4.3042562 0 0 1 -0.13867,-0.01 H 182.875 c -0.0462,0 -0.0893,-0.005 -0.13281,-0.0137 -0.0436,-0.009 -0.0849,-0.0217 -0.125,-0.0391 -0.0399,-0.0174 -0.0797,-0.0398 -0.11524,-0.0645 -0.0355,-0.0248 -0.0674,-0.0528 -0.0976,-0.084 -0.0303,-0.0312 -0.058,-0.0649 -0.082,-0.10156 -0.024,-0.0366 -0.0436,-0.0759 -0.0606,-0.11719 -0.0168,-0.0414 -0.0301,-0.084 -0.0391,-0.12891 -0.008,-0.0449 -0.0137,-0.0929 -0.0137,-0.14062 v -7.22852 c 0,-0.0478 0.005,-0.0938 0.0137,-0.13867 0.009,-0.045 0.0222,-0.0897 0.0391,-0.13086 0.0169,-0.0411 0.0366,-0.0786 0.0606,-0.11523 0.024,-0.0366 0.0518,-0.0724 0.082,-0.10352 0.0301,-0.0311 0.0622,-0.0594 0.0976,-0.084 0.0354,-0.0246 0.0753,-0.0452 0.11524,-0.0625 0.0401,-0.0173 0.0814,-0.0301 0.125,-0.0391 0.0434,-0.008 0.0866,-0.0156 0.13281,-0.0156 z" />
    <path
       id="path1416"
       style="fill:#000000;stroke-width:0.851692"
       d="m 179.92188,417.31445 v 1.32813 13.92773 1.34766 h 21.36132 a 6.551664,8.2934899 0 0 0 0.38086,-0.0137 6.551664,8.2934899 0 0 0 0.37891,-0.043 6.551664,8.2934899 0 0 0 0.37695,-0.0684 6.551664,8.2934899 0 0 0 0.37305,-0.0977 6.551664,8.2934899 0 0 0 0.36914,-0.125 6.551664,8.2934899 0 0 0 0.36133,-0.15234 6.551664,8.2934899 0 0 0 0.35351,-0.17774 6.551664,8.2934899 0 0 0 0.34571,-0.20507 6.551664,8.2934899 0 0 0 0.33593,-0.22852 6.551664,8.2934899 0 0 0 0.32422,-0.25391 6.551664,8.2934899 0 0 0 0.3125,-0.27539 6.551664,8.2934899 0 0 0 0.29883,-0.29882 6.551664,8.2934899 0 0 0 0.28516,-0.32227 6.551664,8.2934899 0 0 0 0.26953,-0.33984 6.551664,8.2934899 0 0 0 0.25195,-0.36133 6.551664,8.2934899 0 0 0 0.23633,-0.37891 6.551664,8.2934899 0 0 0 0.21875,-0.39453 6.551664,8.2934899 0 0 0 0.20117,-0.41016 6.551664,8.2934899 0 0 0 0.17969,-0.42578 6.551664,8.2934899 0 0 0 0.16211,-0.43554 6.551664,8.2934899 0 0 0 0.14062,-0.44922 6.551664,8.2934899 0 0 0 0.11914,-0.45703 6.551664,8.2934899 0 0 0 0.0996,-0.4668 6.551664,8.2934899 0 0 0 0.0762,-0.47266 6.551664,8.2934899 0 0 0 0.0547,-0.47656 6.551664,8.2934899 0 0 0 0.0332,-0.48047 6.551664,8.2934899 0 0 0 0.0117,-0.48242 6.551664,8.2934899 0 0 0 -0.0117,-0.48047 6.551664,8.2934899 0 0 0 -0.0332,-0.47851 6.551664,8.2934899 0 0 0 -0.0547,-0.47657 6.551664,8.2934899 0 0 0 -0.0762,-0.4707 6.551664,8.2934899 0 0 0 -0.0976,-0.46484 6.551664,8.2934899 0 0 0 -0.11914,-0.45703 6.551664,8.2934899 0 0 0 -0.13868,-0.44727 6.551664,8.2934899 0 0 0 -0.16015,-0.43555 6.551664,8.2934899 0 0 0 -0.17969,-0.42383 6.551664,8.2934899 0 0 0 -0.19922,-0.4082 6.551664,8.2934899 0 0 0 -0.21679,-0.39453 6.551664,8.2934899 0 0 0 -0.23438,-0.37891 6.551664,8.2934899 0 0 0 -0.25195,-0.35937 6.551664,8.2934899 0 0 0 -0.26758,-0.3418 6.551664,8.2934899 0 0 0 -0.2832,-0.32031 6.551664,8.2934899 0 0 0 -0.29688,-0.29883 6.551664,8.2934899 0 0 0 -0.31055,-0.27734 6.551664,8.2934899 0 0 0 -0.32226,-0.25391 6.551664,8.2934899 0 0 0 -0.33399,-0.22851 6.551664,8.2934899 0 0 0 -0.34375,-0.20508 6.551664,8.2934899 0 0 0 -0.35351,-0.17969 6.551664,8.2934899 0 0 0 -0.35938,-0.1543 6.551664,8.2934899 0 0 0 -0.36523,-0.125 6.551664,8.2934899 0 0 0 -0.37305,-0.0996 6.551664,8.2934899 0 0 0 -0.375,-0.0723 6.551664,8.2934899 0 0 0 -0.3789,-0.0449 6.551664,8.2934899 0 0 0 -0.37891,-0.0156 c -0.0361,-0.007 -0.072,-0.0176 -0.10938,-0.0176 H 180.7793 c -0.0594,0 -0.11789,0.01 -0.17383,0.0273 0.0489,-0.0154 0.10057,-0.0252 0.15234,-0.0273 z m 2.63085,1.96289 17.4668,0.002 c 0.0318,0 0.0628,0.005 0.0937,0.01 a 5.5991271,6.3343427 0 0 1 0.41602,0.0215 5.5991271,6.3343427 0 0 1 0.41406,0.0547 5.5991271,6.3343427 0 0 1 0.4082,0.0899 5.5991271,6.3343427 0 0 1 0.40235,0.12304 5.5991271,6.3343427 0 0 1 0.39453,0.15821 5.5991271,6.3343427 0 0 1 0.38086,0.1914 5.5991271,6.3343427 0 0 1 0.36718,0.22266 5.5991271,6.3343427 0 0 1 0.35352,0.25195 5.5991271,6.3343427 0 0 1 0.33398,0.28125 5.5991271,6.3343427 0 0 1 0.31836,0.3086 5.5991271,6.3343427 0 0 1 0.29297,0.33789 5.5991271,6.3343427 0 0 1 0.26953,0.35547 5.5991271,6.3343427 0 0 1 0.24805,0.38086 5.5991271,6.3343427 0 0 1 0.22266,0.40234 5.5991271,6.3343427 0 0 1 0.19336,0.41797 5.5991271,6.3343427 0 0 1 0.16601,0.43164 5.5991271,6.3343427 0 0 1 0.13672,0.44336 5.5991271,6.3343427 0 0 1 0.10938,0.45703 5.5991271,6.3343427 0 0 1 0.0762,0.46484 5.5991271,6.3343427 0 0 1 0.0469,0.47071 5.5991271,6.3343427 0 0 0 0,0.002 5.5991271,6.3343427 0 0 0 0,0.002 5.5991271,6.3343427 0 0 0 0,0.002 5.5991271,6.3343427 0 0 0 0,0.002 5.5991271,6.3343427 0 0 0 0,0.002 5.5991271,6.3343427 0 0 0 0,0.002 5.5991271,6.3343427 0 0 0 0,0.002 5.5991271,6.3343427 0 0 0 0,0.002 5.5991271,6.3343427 0 0 0 0,0.002 5.5991271,6.3343427 0 0 1 0.002,0.0156 5.5991271,6.3343427 0 0 0 0,0.002 5.5991271,6.3343427 0 0 0 0,0.002 5.5991271,6.3343427 0 0 0 0,0.002 5.5991271,6.3343427 0 0 0 0,0.002 5.5991271,6.3343427 0 0 0 0,0.002 5.5991271,6.3343427 0 0 0 0,0.002 5.5991271,6.3343427 0 0 0 0,0.002 5.5991271,6.3343427 0 0 0 0,0.002 5.5991271,6.3343427 0 0 0 0,0.002 5.5991271,6.3343427 0 0 0 0,0.002 5.5991271,6.3343427 0 0 0 0,0.002 5.5991271,6.3343427 0 0 0 0,0.002 5.5991271,6.3343427 0 0 0 0,0.002 5.5991271,6.3343427 0 0 0 0,0.002 5.5991271,6.3343427 0 0 0 0,0.002 5.5991271,6.3343427 0 0 0 0,0.002 5.5991271,6.3343427 0 0 0 0,0.002 5.5991271,6.3343427 0 0 0 0,0.002 5.5991271,6.3343427 0 0 1 0.002,0.0176 5.5991271,6.3343427 0 0 0 0,0.002 5.5991271,6.3343427 0 0 0 0,0.002 5.5991271,6.3343427 0 0 0 0,0.002 5.5991271,6.3343427 0 0 0 0,0.002 5.5991271,6.3343427 0 0 0 0,0.002 5.5991271,6.3343427 0 0 0 0,0.002 5.5991271,6.3343427 0 0 0 0,0.002 5.5991271,6.3343427 0 0 0 0,0.002 5.5991271,6.3343427 0 0 0 0,0.002 5.5991271,6.3343427 0 0 0 0,0.002 5.5991271,6.3343427 0 0 0 0,0.002 5.5991271,6.3343427 0 0 0 0,0.002 5.5991271,6.3343427 0 0 0 0,0.002 5.5991271,6.3343427 0 0 0 0,0.002 5.5991271,6.3343427 0 0 0 0,0.002 5.5991271,6.3343427 0 0 0 0,0.002 5.5991271,6.3343427 0 0 0 0,0.002 5.5991271,6.3343427 0 0 1 0.002,0.0195 5.5991271,6.3343427 0 0 0 0,0.002 5.5991271,6.3343427 0 0 0 0,0.002 5.5991271,6.3343427 0 0 0 0,0.002 5.5991271,6.3343427 0 0 0 0,0.002 5.5991271,6.3343427 0 0 0 0,0.002 5.5991271,6.3343427 0 0 0 0,0.002 5.5991271,6.3343427 0 0 0 0,0.002 5.5991271,6.3343427 0 0 0 0,0.002 5.5991271,6.3343427 0 0 0 0,0.002 5.5991271,6.3343427 0 0 0 0,0.002 5.5991271,6.3343427 0 0 0 0,0.002 5.5991271,6.3343427 0 0 0 0,0.002 5.5991271,6.3343427 0 0 0 0,0.002 5.5991271,6.3343427 0 0 0 0,0.002 5.5991271,6.3343427 0 0 0 0,0.002 5.5991271,6.3343427 0 0 0 0,0.002 5.5991271,6.3343427 0 0 0 0,0.002 5.5991271,6.3343427 0 0 0 0,0.002 5.5991271,6.3343427 0 0 0 0,0.002 5.5991271,6.3343427 0 0 0 0,0.002 5.5991271,6.3343427 0 0 0 0,0.002 5.5991271,6.3343427 0 0 0 0,0.002 5.5991271,6.3343427 0 0 0 0,0.002 5.5991271,6.3343427 0 0 0 0,0.002 5.5991271,6.3343427 0 0 0 0,0.002 5.5991271,6.3343427 0 0 0 0,0.002 5.5991271,6.3343427 0 0 0 0,0.002 5.5991271,6.3343427 0 0 1 0.002,0.0156 5.5991271,6.3343427 0 0 0 0,0.002 5.5991271,6.3343427 0 0 0 0,0.002 5.5991271,6.3343427 0 0 0 0,0.002 5.5991271,6.3343427 0 0 0 0,0.002 5.5991271,6.3343427 0 0 0 0,0.002 5.5991271,6.3343427 0 0 0 0,0.002 5.5991271,6.3343427 0 0 0 0,0.002 5.5991271,6.3343427 0 0 0 0,0.002 5.5991271,6.3343427 0 0 0 0,0.002 5.5991271,6.3343427 0 0 0 0,0.002 5.5991271,6.3343427 0 0 0 0,0.002 5.5991271,6.3343427 0 0 0 0,0.002 5.5991271,6.3343427 0 0 0 0,0.002 5.5991271,6.3343427 0 0 0 0,0.002 5.5991271,6.3343427 0 0 0 0,0.002 5.5991271,6.3343427 0 0 0 0,0.002 5.5991271,6.3343427 0 0 0 0,0.002 5.5991271,6.3343427 0 0 0 0,0.002 5.5991271,6.3343427 0 0 0 0,0.002 5.5991271,6.3343427 0 0 0 0,0.002 5.5991271,6.3343427 0 0 0 0,0.002 5.5991271,6.3343427 0 0 0 0,0.002 5.5991271,6.3343427 0 0 0 0,0.002 5.5991271,6.3343427 0 0 0 0,0.002 5.5991271,6.3343427 0 0 0 0,0.002 5.5991271,6.3343427 0 0 0 0,0.002 5.5991271,6.3343427 0 0 0 0,0.002 5.5991271,6.3343427 0 0 0 0,0.002 5.5991271,6.3343427 0 0 0 0,0.002 5.5991271,6.3343427 0 0 0 0,0.002 5.5991271,6.3343427 0 0 0 0,0.002 5.5991271,6.3343427 0 0 0 0,0.002 5.5991271,6.3343427 0 0 0 0,0.002 5.5991271,6.3343427 0 0 0 0,0.002 5.5991271,6.3343427 0 0 0 0,0.002 5.5991271,6.3343427 0 0 0 0,0.002 5.5991271,6.3343427 0 0 0 0,0.002 5.5991271,6.3343427 0 0 0 0,0.002 5.5991271,6.3343427 0 0 0 0,0.002 5.5991271,6.3343427 0 0 0 0,0.002 5.5991271,6.3343427 0 0 0 0,0.002 5.5991271,6.3343427 0 0 0 0,0.002 5.5991271,6.3343427 0 0 0 0,0.002 5.5991271,6.3343427 0 0 0 0,0.002 5.5991271,6.3343427 0 0 0 0,0.002 5.5991271,6.3343427 0 0 0 0,0.002 5.5991271,6.3343427 0 0 0 0,0.002 5.5991271,6.3343427 0 0 0 0,0.002 5.5991271,6.3343427 0 0 0 0,0.002 5.5991271,6.3343427 0 0 0 0,0.002 5.5991271,6.3343427 0 0 0 0,0.002 5.5991271,6.3343427 0 0 0 0,0.002 5.5991271,6.3343427 0 0 0 0,0.002 5.5991271,6.3343427 0 0 1 0.002,0.0195 5.5991271,6.3343427 0 0 0 0,0.002 5.5991271,6.3343427 0 0 0 0,0.002 5.5991271,6.3343427 0 0 0 0,0.002 5.5991271,6.3343427 0 0 0 0,0.002 5.5991271,6.3343427 0 0 0 0,0.002 5.5991271,6.3343427 0 0 0 0,0.002 5.5991271,6.3343427 0 0 0 0,0.002 5.5991271,6.3343427 0 0 0 0,0.002 5.5991271,6.3343427 0 0 0 0,0.002 5.5991271,6.3343427 0 0 0 0,0.002 5.5991271,6.3343427 0 0 0 0,0.002 5.5991271,6.3343427 0 0 0 0,0.002 5.5991271,6.3343427 0 0 0 0,0.002 5.5991271,6.3343427 0 0 0 0,0.002 5.5991271,6.3343427 0 0 0 0,0.002 5.5991271,6.3343427 0 0 0 0,0.002 5.5991271,6.3343427 0 0 0 0,0.002 5.5991271,6.3343427 0 0 0 0,0.002 5.5991271,6.3343427 0 0 0 0,0.002 5.5991271,6.3343427 0 0 0 0,0.002 5.5991271,6.3343427 0 0 0 0,0.002 5.5991271,6.3343427 0 0 0 0,0.002 5.5991271,6.3343427 0 0 0 0,0.002 5.5991271,6.3343427 0 0 0 0,0.002 5.5991271,6.3343427 0 0 0 0,0.002 5.5991271,6.3343427 0 0 0 0,0.002 5.5991271,6.3343427 0 0 0 0,0.002 5.5991271,6.3343427 0 0 0 0,0.002 5.5991271,6.3343427 0 0 0 0,0.002 5.5991271,6.3343427 0 0 0 0,0.002 5.5991271,6.3343427 0 0 0 0,0.002 5.5991271,6.3343427 0 0 0 0,0.002 5.5991271,6.3343427 0 0 0 0,0.002 5.5991271,6.3343427 0 0 0 0,0.002 5.5991271,6.3343427 0 0 0 0,0.002 5.5991271,6.3343427 0 0 0 0,0.002 5.5991271,6.3343427 0 0 0 0,0.002 5.5991271,6.3343427 0 0 0 0,0.002 5.5991271,6.3343427 0 0 0 0,0.002 5.5991271,6.3343427 0 0 0 0,0.002 5.5991271,6.3343427 0 0 0 0,0.002 5.5991271,6.3343427 0 0 0 0,0.002 5.5991271,6.3343427 0 0 0 0,0.002 5.5991271,6.3343427 0 0 0 0,0.002 5.5991271,6.3343427 0 0 0 0,0.002 5.5991271,6.3343427 0 0 0 0,0.002 5.5991271,6.3343427 0 0 0 0,0.002 5.5991271,6.3343427 0 0 0 0,0.002 5.5991271,6.3343427 0 0 0 0,0.002 5.5991271,6.3343427 0 0 0 0,0.002 5.5991271,6.3343427 0 0 0 0,0.002 5.5991271,6.3343427 0 0 0 0,0.002 5.5991271,6.3343427 0 0 0 0,0.002 5.5991271,6.3343427 0 0 0 0,0.002 5.5991271,6.3343427 0 0 0 0,0.002 5.5991271,6.3343427 0 0 0 0,0.002 5.5991271,6.3343427 0 0 0 0,0.002 5.5991271,6.3343427 0 0 0 0,0.002 5.5991271,6.3343427 0 0 0 0,0.002 5.5991271,6.3343427 0 0 0 0,0.002 5.5991271,6.3343427 0 0 0 0,0.002 5.5991271,6.3343427 0 0 0 0,0.002 5.5991271,6.3343427 0 0 0 0,0.002 5.5991271,6.3343427 0 0 0 0,0.002 5.5991271,6.3343427 0 0 0 0,0.002 5.5991271,6.3343427 0 0 0 0,0.002 5.5991271,6.3343427 0 0 0 0,0.002 5.5991271,6.3343427 0 0 0 0,0.002 5.5991271,6.3343427 0 0 0 0,0.002 5.5991271,6.3343427 0 0 0 0,0.002 5.5991271,6.3343427 0 0 0 0,0.002 5.5991271,6.3343427 0 0 1 -0.14063,1.41015 5.5991271,6.3343427 0 0 1 -0.41406,1.33789 5.5991271,6.3343427 0 0 1 -0.66797,1.19922 5.5991271,6.3343427 0 0 1 -0.88672,1.00391 5.5991271,6.3343427 0 0 1 -1.06054,0.75586 5.5991271,6.3343427 0 0 1 -1.1836,0.4668 5.5991271,6.3343427 0 0 1 -1.24414,0.1582 5.5991271,6.3343427 0 0 1 -0.15429,-0.0117 h -17.36915 c -0.0507,0 -0.10073,-0.008 -0.14843,-0.0215 -0.0479,-0.0135 -0.0927,-0.0309 -0.13672,-0.0566 -0.0439,-0.0256 -0.0879,-0.0593 -0.12696,-0.0957 -0.039,-0.0365 -0.0724,-0.0771 -0.10546,-0.12305 -0.033,-0.0459 -0.0653,-0.0943 -0.0918,-0.14843 -0.0264,-0.054 -0.0479,-0.11293 -0.0664,-0.17383 -0.0184,-0.0608 -0.0369,-0.12521 -0.0449,-0.19141 -0.01,-0.0662 -0.0137,-0.13488 -0.0137,-0.20508 v -10.63867 c 0,-0.0703 0.006,-0.13898 0.0137,-0.20508 0.01,-0.0661 0.0263,-0.12885 0.0449,-0.18945 0.0186,-0.0606 0.04,-0.11993 0.0664,-0.17383 0.0262,-0.0537 0.0585,-0.10283 0.0918,-0.14843 0.0331,-0.0458 0.0663,-0.0869 0.10546,-0.12305 0.039,-0.0362 0.0831,-0.0664 0.12696,-0.0918 0.044,-0.0256 0.0888,-0.0451 0.13672,-0.0586 0.0478,-0.014 0.0976,-0.0215 0.14843,-0.0215 z" />
    <path
       id="path1443"
       style="stroke-width:2.68072"
       d="m 535.05642,384.2659 a 7.1280727,7.1280727 0 0 1 -7.12808,7.12807 7.1280727,7.1280727 0 0 1 -7.12807,-7.12807 7.1280727,7.1280727 0 0 1 7.12807,-7.12807 7.1280727,7.1280727 0 0 1 7.12808,7.12807 z" />
    <path
       id="path1443-6-2"
       style="fill:#00ffff;stroke-width:1.5503"
       d="m 533.14059,384.89661 a 4.1222816,4.1222816 0 0 1 -4.12228,4.12228 4.1222816,4.1222816 0 0 1 -4.12228,-4.12228 4.1222816,4.1222816 0 0 1 4.12228,-4.12229 4.1222816,4.1222816 0 0 1 4.12228,4.12229 z" />
    <path
       id="rect1720"
       style="stroke-width:0.682644"
       d="m 527.29205,370.2782 h 1.27264 v 7.82716 h -1.27264 z" />
    <path
       id="path1730"
       style="stroke-width:1.23802"
       d="m 532.18999,385.73215 a 1.9899197,1.9899197 0 0 1 -1.98992,1.98992 1.9899197,1.9899197 0 0 1 -1.98992,-1.98992 1.9899197,1.9899197 0 0 1 1.98992,-1.98992 1.9899197,1.9899197 0 0 1 1.98992,1.98992 z" />
  </g>
</svg>
