<svg xmlns="http://www.w3.org/2000/svg" xmlns:xlink="http://www.w3.org/1999/xlink" width="489.18" height="100.43"><defs><linearGradient id="a"><stop offset="0" stop-color="#00dcef" stop-opacity=".8"/><stop offset=".37" stop-color="#0015da" stop-opacity=".8"/><stop offset=".69" stop-color="#00dcef" stop-opacity=".8"/><stop offset="1" stop-color="#0015da" stop-opacity=".8"/></linearGradient><linearGradient xlink:href="#a" id="b" x1="174.44" x2="630.07" y1="407.19" y2="407.19" gradientUnits="userSpaceOnUse"/></defs><g transform="translate(-155.12 -357.74)"><path d="M451.12 412.72a7.99 12.45 0 0 0-1.04.11 7.99 12.45 0 0 0-1.03.32 7.99 12.45 0 0 0-.99.52 7.99 12.45 0 0 0-.93.72 7.99 12.45 0 0 0-.87.9 7.99 12.45 0 0 0-.79 1.08 7.99 12.45 0 0 0-.68 1.22 7.99 12.45 0 0 0-.58 1.36 7.99 12.45 0 0 0-.47 1.46 7.99 12.45 0 0 0-.33 1.54 7.99 12.45 0 0 0-.2 1.6 7.99 12.45 0 0 0-.08 1.62 7.99 12.45 0 0 0 .07 1.63 7.99 12.45 0 0 0 .2 1.6 7.99 12.45 0 0 0 .34 1.54 7.99 12.45 0 0 0 .47 1.45 7.99 12.45 0 0 0 .58 1.36 7.99 12.45 0 0 0 .68 1.22 7.99 12.45 0 0 0 .79 1.07 7.99 12.45 0 0 0 .87.9 7.99 12.45 0 0 0 .93.73 7.99 12.45 0 0 0 1 .52 7.99 12.45 0 0 0 1.02.32 7.99 12.45 0 0 0 1.04.1 7.99 12.45 0 0 0 1.04-.1 7.99 12.45 0 0 0 1.03-.32 7.99 12.45 0 0 0 .99-.52 7.99 12.45 0 0 0 .93-.72 7.99 12.45 0 0 0 .87-.9 7.99 12.45 0 0 0 .79-1.08 7.99 12.45 0 0 0 .69-1.22 7.99 12.45 0 0 0 .58-1.36 7.99 12.45 0 0 0 .46-1.45 7.99 12.45 0 0 0 .34-1.55 7.99 12.45 0 0 0 .2-1.6 7.99 12.45 0 0 0 .07-1.62 7.99 12.45 0 0 0-.01-.56 7.99 12.45 0 0 0-.02-.55 7.99 12.45 0 0 0-.04-.56 7.99 12.45 0 0 0-.06-.55 7.99 12.45 0 0 0-.07-.55 7.99 12.45 0 0 0-.09-.54 7.99 12.45 0 0 0-.1-.53 7.99 12.45 0 0 0-.12-.53 7.99 12.45 0 0 0-.14-.52 7.99 12.45 0 0 0-.14-.5 7.99 12.45 0 0 0-.17-.5 7.99 12.45 0 0 0-.17-.5 7.99 12.45 0 0 0-.2-.47 7.99 12.45 0 0 0-.2-.45 7.99 12.45 0 0 0-.21-.45 7.99 12.45 0 0 0-.24-.43 7.99 12.45 0 0 0-.24-.41 7.99 12.45 0 0 0-.25-.4 7.99 12.45 0 0 0-.27-.37 7.99 12.45 0 0 0-.27-.36 7.99 12.45 0 0 0-.28-.34 7.99 12.45 0 0 0-.3-.32 7.99 12.45 0 0 0-.3-.3 7.99 12.45 0 0 0-.31-.27 7.99 12.45 0 0 0-.32-.25 7.99 12.45 0 0 0-.33-.23 7.99 12.45 0 0 0-.33-.21 7.99 12.45 0 0 0-.34-.19 7.99 12.45 0 0 0-.34-.16 7.99 12.45 0 0 0-.35-.13 7.99 12.45 0 0 0-.35-.12 7.99 12.45 0 0 0-.36-.08 7.99 12.45 0 0 0-.35-.06 7.99 12.45 0 0 0-.36-.04 7.99 12.45 0 0 0-.36-.02zm0 4.71a4.96 7.74 0 0 1 .29.02 4.96 7.74 0 0 1 .29.04 4.96 7.74 0 0 1 .28.06 4.96 7.74 0 0 1 .29.1 4.96 7.74 0 0 1 .27.1 4.96 7.74 0 0 1 .28.15 4.96 7.74 0 0 1 .27.17 4.96 7.74 0 0 1 .26.19 4.96 7.74 0 0 1 .25.21 4.96 7.74 0 0 1 .25.24 4.96 7.74 0 0 1 .24.25 4.96 7.74 0 0 1 .22.28 4.96 7.74 0 0 1 .22.3 4.96 7.74 0 0 1 .2.32 4.96 7.74 0 0 1 .2.34 4.96 7.74 0 0 1 .17.35 4.96 7.74 0 0 1 .17.37 4.96 7.74 0 0 1 .15.38 4.96 7.74 0 0 1 .14.4 4.96 7.74 0 0 1 .12.4 4.96 7.74 0 0 1 .1.43 4.96 7.74 0 0 1 .1.42 4.96 7.74 0 0 1 .07.44 4.96 7.74 0 0 1 .06.44 4.96 7.74 0 0 1 .04.44 4.96 7.74 0 0 1 .03.45 4.96 7.74 0 0 1 0 .45 4.96 7.74 0 0 1-.07 1.35 4.96 7.74 0 0 1-.22 1.3 4.96 7.74 0 0 1-.37 1.22 4.96 7.74 0 0 1-.5 1.1 4.96 7.74 0 0 1-.6.96 4.96 7.74 0 0 1-.72.77 4.96 7.74 0 0 1-.78.57 4.96 7.74 0 0 1-.84.35 4.96 7.74 0 0 1-.86.12 4.96 7.74 0 0 1-.86-.12 4.96 7.74 0 0 1-.84-.35 4.96 7.74 0 0 1-.78-.57 4.96 7.74 0 0 1-.71-.77 4.96 7.74 0 0 1-.61-.96 4.96 7.74 0 0 1-.5-1.1 4.96 7.74 0 0 1-.36-1.22 4.96 7.74 0 0 1-.23-1.3 4.96 7.74 0 0 1-.07-1.35 4.96 7.74 0 0 1 .07-1.34 4.96 7.74 0 0 1 .23-1.3 4.96 7.74 0 0 1 .36-1.23 4.96 7.74 0 0 1 .5-1.1 4.96 7.74 0 0 1 .61-.96 4.96 7.74 0 0 1 .7-.77 4.96 7.74 0 0 1 .8-.57 4.96 7.74 0 0 1 .83-.35 4.96 7.74 0 0 1 .86-.12z"/><path fill="url(#b)" d="M464.68 358.87v2.3l16.09 12.46v81.74h10.56v-83.12c0-.3-.15-.53-.34-.53h-8.38l-16.6-12.85zm-289.77 15.2c-.2 0-.36.29-.36.64v21.7c0 .36.16.65.36.65h35.98c.2 0 .36-.3.36-.65v-21.7c0-.35-.16-.64-.36-.64zm6.14 5.48h18.71l.1.01a6 6 0 0 1 .38.02 6 6 0 0 1 .37.04 6 6 0 0 1 .37.06 6 6 0 0 1 .37.08 6 6 0 0 1 .36.1 6 6 0 0 1 .35.13 6 6 0 0 1 .35.16 6 6 0 0 1 .33.17 6 6 0 0 1 .32.19 6 6 0 0 1 .31.21 6 6 0 0 1 .3.23 6 6 0 0 1 .28.25 6 6 0 0 1 .26.27 6 6 0 0 1 .25.28 6 6 0 0 1 .23.3 6 6 0 0 1 .21.3 6 6 0 0 1 .2.33 6 6 0 0 1 .16.34 6 6 0 0 1 .15.34 6 6 0 0 1 .13.36 6 6 0 0 1 .1.36 6 6 0 0 1 .08.36 6 6 0 0 1 .06.37 6 6 0 0 1 .04.38 6 6 0 0 1 .01.37 6 6 0 0 1-.1 1.05 6 6 0 0 1-.26 1 6 6 0 0 1-.44.95 6 6 0 0 1-.6.86 6 6 0 0 1-.74.74 6 6 0 0 1-.86.6 6 6 0 0 1-.95.44 6 6 0 0 1-1 .27 6 6 0 0 1-1.05.1 6 6 0 0 1-.16-.02h-18.62a.66.66 0 0 1-.44-.16.85.85 0 0 1-.21-.26 1.05 1.05 0 0 1-.13-.54v-10.08a1.15 1.15 0 0 1 .13-.53.95.95 0 0 1 .21-.26.74.74 0 0 1 .28-.15l.16-.02zm197.16 13.9c-.29 0-.52.25-.52.56v60.93c0 .32.23.58.52.58h2.28c.28 0 .51-.26.51-.58v-60.93c0-.31-.23-.57-.51-.57zm-125.92 7.33a3 3 0 0 0-3 3v37.57a3 3 0 0 0 3 3h39.6a3 3 0 0 0 3-3v-37.57a3 3 0 0 0-3-3zm280.88 1.58a3 3 0 0 0-3 3v37.57a3 3 0 0 0 3 3h39.6a3 3 0 0 0 3-3v-37.57a3 3 0 0 0-3-3zm73.15 1.17c-.17 0-.3.25-.3.57v14.61c0 .32.13.58.3.58h23.44c.17 0 .3-.26.3-.58v-14.6c0-.33-.13-.58-.3-.58zm-168.68 1.93c-.17 0-.31.29-.31.64v38.43c0 .35.14.64.31.64h27.2c.18 0 .32-.29.32-.64V406.1c0-.35-.14-.64-.32-.64zm-98.57.73c-6.23 0-12.46.14-12.78.44-.63.6 11.5 11.87 12.78 11.87 1.28 0 13.42-11.28 12.78-11.87-.32-.3-6.55-.44-12.78-.44zm-164.27 5.97c-.2 0-.36.3-.36.65v25.6c0 .35.16.64.36.64h39.28c.2 0 .36-.29.36-.65v-25.59c0-.36-.16-.65-.36-.65zm276.32.56a7.99 12.45 0 0 1 .36.02 7.99 12.45 0 0 1 .36.04 7.99 12.45 0 0 1 .35.06 7.99 12.45 0 0 1 .36.08 7.99 12.45 0 0 1 .35.12 7.99 12.45 0 0 1 .35.13 7.99 12.45 0 0 1 .34.16 7.99 12.45 0 0 1 .34.19 7.99 12.45 0 0 1 .33.2 7.99 12.45 0 0 1 .33.24 7.99 12.45 0 0 1 .32.25 7.99 12.45 0 0 1 .3.28 7.99 12.45 0 0 1 .31.3 7.99 12.45 0 0 1 .3.31 7.99 12.45 0 0 1 .28.34 7.99 12.45 0 0 1 .28.36 7.99 12.45 0 0 1 .26.38 7.99 12.45 0 0 1 .25.39 7.99 12.45 0 0 1 .24.41 7.99 12.45 0 0 1 .24.43 7.99 12.45 0 0 1 .21.45 7.99 12.45 0 0 1 .2.45 7.99 12.45 0 0 1 .2.48 7.99 12.45 0 0 1 .17.48 7.99 12.45 0 0 1 .17.5 7.99 12.45 0 0 1 .14.5 7.99 12.45 0 0 1 .14.53 7.99 12.45 0 0 1 .12.53 7.99 12.45 0 0 1 .1.53 7.99 12.45 0 0 1 .09.54 7.99 12.45 0 0 1 .07.55 7.99 12.45 0 0 1 .06.55 7.99 12.45 0 0 1 .04.56 7.99 12.45 0 0 1 .02.55 7.99 12.45 0 0 1 0 .56 7.99 12.45 0 0 1-.06 1.63 7.99 12.45 0 0 1-.2 1.6 7.99 12.45 0 0 1-.34 1.54 7.99 12.45 0 0 1-.46 1.45 7.99 12.45 0 0 1-.58 1.36 7.99 12.45 0 0 1-.7 1.22 7.99 12.45 0 0 1-.78 1.07 7.99 12.45 0 0 1-.87.9 7.99 12.45 0 0 1-.93.73 7.99 12.45 0 0 1-1 .52 7.99 12.45 0 0 1-1.02.32 7.99 12.45 0 0 1-1.04.1 7.99 12.45 0 0 1-1.04-.1 7.99 12.45 0 0 1-1.03-.32 7.99 12.45 0 0 1-.99-.52 7.99 12.45 0 0 1-.93-.72 7.99 12.45 0 0 1-.87-.9 7.99 12.45 0 0 1-.79-1.08 7.99 12.45 0 0 1-.68-1.22 7.99 12.45 0 0 1-.58-1.36 7.99 12.45 0 0 1-.47-1.45 7.99 12.45 0 0 1-.33-1.55 7.99 12.45 0 0 1-.2-1.6 7.99 12.45 0 0 1-.08-1.62 7.99 12.45 0 0 1 .07-1.62 7.99 12.45 0 0 1 .2-1.6 7.99 12.45 0 0 1 .34-1.54 7.99 12.45 0 0 1 .47-1.46 7.99 12.45 0 0 1 .58-1.36 7.99 12.45 0 0 1 .68-1.22 7.99 12.45 0 0 1 .79-1.07 7.99 12.45 0 0 1 .87-.9 7.99 12.45 0 0 1 .93-.73 7.99 12.45 0 0 1 1-.52 7.99 12.45 0 0 1 1.02-.32 7.99 12.45 0 0 1 1.04-.1zm-179 2.8a7.93 7.93 0 0 1 7.92 7.92 7.93 7.93 0 0 1-7.92 7.93 7.93 7.93 0 0 1-7.93-7.93 7.93 7.93 0 0 1 7.93-7.93zM553 417.08a7.93 7.93 0 0 1 7.93 7.93 7.93 7.93 0 0 1-7.93 7.93 7.93 7.93 0 0 1-7.93-7.93 7.93 7.93 0 0 1 7.93-7.93zm-372.22.22h20.43l.1.02a6.55 8.3 0 0 1 .39.02 6.55 8.3 0 0 1 .38.04 6.55 8.3 0 0 1 .37.07 6.55 8.3 0 0 1 .37.1 6.55 8.3 0 0 1 .37.13 6.55 8.3 0 0 1 .36.15 6.55 8.3 0 0 1 .35.18 6.55 8.3 0 0 1 .35.2 6.55 8.3 0 0 1 .33.24 6.55 8.3 0 0 1 .32.25 6.55 8.3 0 0 1 .31.28 6.55 8.3 0 0 1 .3.3 6.55 8.3 0 0 1 .28.32 6.55 8.3 0 0 1 .27.34 6.55 8.3 0 0 1 .25.36 6.55 8.3 0 0 1 .24.38 6.55 8.3 0 0 1 .21.4 6.55 8.3 0 0 1 .2.4 6.55 8.3 0 0 1 .18.42 6.55 8.3 0 0 1 .16.44 6.55 8.3 0 0 1 .14.45 6.55 8.3 0 0 1 .12.45 6.55 8.3 0 0 1 .1.47 6.55 8.3 0 0 1 .07.47 6.55 8.3 0 0 1 .06.48 6.55 8.3 0 0 1 .03.47 6.55 8.3 0 0 1 .01.49 6.55 8.3 0 0 1 0 .48 6.55 8.3 0 0 1-.04.48 6.55 8.3 0 0 1-.06.47 6.55 8.3 0 0 1-.07.48 6.55 8.3 0 0 1-.1.46 6.55 8.3 0 0 1-.12.46 6.55 8.3 0 0 1-.14.45 6.55 8.3 0 0 1-.16.44 6.55 8.3 0 0 1-.18.42 6.55 8.3 0 0 1-.2.41 6.55 8.3 0 0 1-.22.4 6.55 8.3 0 0 1-.24.38 6.55 8.3 0 0 1-.25.36 6.55 8.3 0 0 1-.27.34 6.55 8.3 0 0 1-.29.32 6.55 8.3 0 0 1-.3.3 6.55 8.3 0 0 1-.3.27 6.55 8.3 0 0 1-.33.26 6.55 8.3 0 0 1-.34.23 6.55 8.3 0 0 1-.34.2 6.55 8.3 0 0 1-.36.18 6.55 8.3 0 0 1-.36.15 6.55 8.3 0 0 1-.37.13 6.55 8.3 0 0 1-.37.1 6.55 8.3 0 0 1-.38.06 6.55 8.3 0 0 1-.38.04 6.55 8.3 0 0 1-.38.02 6.55 8.3 0 0 1-.17-.02h-20.33a.59.59 0 0 1-.34-.1 1.09 1.09 0 0 1-.27-.29 1.37 1.37 0 0 1-.18-.42 1.89 1.89 0 0 1-.07-.52v-13.93a2.01 2.01 0 0 1 .15-.74 1.36 1.36 0 0 1 .23-.36c.04-.05.1-.09.14-.12a.66.66 0 0 1 .34-.1zm158.3 13.75c-1.29 0-13.42 11.28-12.79 11.87.64.6 24.92.6 25.56 0 .64-.6-11.5-11.87-12.78-11.87z" font-family="Aesthetic Iosevka Original" font-size="155.87" font-weight="700" style="-inkscape-font-specification:&quot;Aesthetic Iosevka Original Bold&quot;;mix-blend-mode:normal"/><path d="M482.5 371.79h8.73v83.57h20.23v-83.57H538v-12.92h-72.2Z" font-family="Aesthetic Iosevka Original" font-size="155.87" font-weight="700" style="-inkscape-font-specification:&quot;Aesthetic Iosevka Original Bold&quot;"/><path d="M464.69 360.82v10.97h14.17z" font-family="Aesthetic Iosevka Original" font-size="155.87" font-weight="700" style="-inkscape-font-specification:&quot;Aesthetic Iosevka Original Bold&quot;"/><text xml:space="preserve" x="144.45" y="454.94" font-size="133.33"><tspan x="144.45" y="454.94" font-family="sans-serif" font-weight="700" style="-inkscape-font-specification:&quot;sans-serif Bold&quot;">B</tspan></text><text xml:space="preserve" x="560.01" y="476.52" stroke-width=".96" font-family="Aesthetic Iosevka Original" font-size="127.76" font-weight="700" style="-inkscape-font-specification:&quot;Aesthetic Iosevka Original Bold&quot;" transform="scale(1.0436 .9582)"><tspan x="560.01" y="476.52">e</tspan></text><path d="M272.12 390.62a32.84 32.84 0 0 0-32.84 32.84 32.84 32.84 0 0 0 32.84 32.84 32.84 32.84 0 0 0 32.83-32.84 32.84 32.84 0 0 0-32.83-32.84zm0 12.68a20.16 20.16 0 0 1 20.15 20.16 20.16 20.16 0 0 1-20.15 20.16 20.16 20.16 0 0 1-20.16-20.16 20.16 20.16 0 0 1 20.16-20.16z"/><rect width="15" height="81.73" x="51.88" y="-582.27" rx="11.49" ry="7.36" transform="rotate(135.02) skewX(-.01)"/><rect width="15" height="81.73" x="533.87" y="-100.63" rx="11.49" ry="7.36" transform="matrix(.7073 .707 .7068 -.7074 0 0)"/><path d="M272.11 410.56a12.9 12.9 0 0 0-12.9 12.9 12.9 12.9 0 0 0 12.9 12.9 12.9 12.9 0 0 0 12.9-12.9 12.9 12.9 0 0 0-12.9-12.9zm0 4.98a7.92 7.92 0 0 1 7.92 7.92 7.92 7.92 0 0 1-7.92 7.92 7.92 7.92 0 0 1-7.92-7.92 7.92 7.92 0 0 1 7.92-7.92zM553 392.2a32.84 32.84 0 0 0-32.84 32.84A32.84 32.84 0 0 0 553 457.88a32.84 32.84 0 0 0 32.83-32.84A32.84 32.84 0 0 0 553 392.2zm0 12.68a20.16 20.16 0 0 1 20.15 20.16A20.16 20.16 0 0 1 553 445.2a20.16 20.16 0 0 1-20.16-20.16A20.16 20.16 0 0 1 553 404.88z"/><path d="M553 412.14a12.9 12.9 0 0 0-12.9 12.9 12.9 12.9 0 0 0 12.9 12.9 12.9 12.9 0 0 0 12.9-12.9 12.9 12.9 0 0 0-12.9-12.9zm0 4.98a7.92 7.92 0 0 1 7.92 7.92 7.92 7.92 0 0 1-7.92 7.92 7.92 7.92 0 0 1-7.92-7.92 7.92 7.92 0 0 1 7.92-7.92z"/><path d="M464.74 371.74v29.76c-4.03-6.2-9.43-9.08-17.13-9.08-14.83 0-26.09 14.26-26.09 33 0 18.15 10.46 32.75 26.09 32.75 7.7 0 13.1-2.88 17.13-8.97v6.33h16.09v-81.85l-2.5-1.94zm-52.07 20.68c-7.36 0-13.8 4.83-17.24 13.22v-12.18h-16.1v62.07h16.1v-33c0-9.42 4.71-14.13 14.14-14.13 1.72 0 2.87.11 5.05.46v-16.32c-.92-.12-1.49-.12-1.95-.12zm38.5 13.45c8.16 0 13.57 7.93 13.57 19.77 0 11.26-5.52 19.08-13.57 19.08-8.04 0-13.56-7.93-13.56-19.3 0-11.5 5.52-19.55 13.56-19.55z" font-family="Aesthetic Iosevka Original" font-size="114.94" font-weight="700" style="-inkscape-font-specification:&quot;Aesthetic Iosevka Original Bold&quot;"/><path d="M618 407.48a7.66 8.8 0 0 0-7.63 8.18h15.26a7.66 8.8 0 0 0-7.64-8.18zm-437.73-27.93v12.01h19.56a6 6 0 0 0 1.04-.09 6 6 0 0 0 1.01-.27 6 6 0 0 0 .95-.44 6 6 0 0 0 .86-.6 6 6 0 0 0 .74-.74 6 6 0 0 0 .6-.86 6 6 0 0 0 .44-.94 6 6 0 0 0 .27-1.01 6 6 0 0 0 .09-1.05v-.1a6 6 0 0 0 0-.01 6 6 0 0 0 0-.01 6 6 0 0 0 0-.01 6 6 0 0 0 0-.01 6 6 0 0 0 0-.01 6 6 0 0 0 0-.01 6 6 0 0 0 0-.01 6 6 0 0 0 0-.02 6 6 0 0 0 0-.01 6 6 0 0 0 0-.01 6 6 0 0 0 0-.01 6 6 0 0 0 0-.01 6 6 0 0 0 0-.02 6 6 0 0 0 0-.01 6 6 0 0 0 0-.01 6 6 0 0 0 0-.01 6 6 0 0 0 0-.01 6 6 0 0 0 0-.01 6 6 0 0 0 0-.01 6 6 0 0 0-.01-.02 6 6 0 0 0 0-.01 6 6 0 0 0 0-.01 6 6 0 0 0 0-.01 6 6 0 0 0 0-.01 6 6 0 0 0-.04-.38 6 6 0 0 0-.06-.37 6 6 0 0 0-.08-.37 6 6 0 0 0-.1-.36 6 6 0 0 0-.13-.35 6 6 0 0 0-.15-.35 6 6 0 0 0-.17-.33 6 6 0 0 0-.19-.33 6 6 0 0 0-.2-.3 6 6 0 0 0-.24-.3 6 6 0 0 0-.25-.29 6 6 0 0 0-.26-.26 6 6 0 0 0-.28-.25 6 6 0 0 0-.3-.23 6 6 0 0 0-.3-.22 6 6 0 0 0-.33-.19 6 6 0 0 0-.33-.17 6 6 0 0 0-.35-.15 6 6 0 0 0-.35-.13 6 6 0 0 0-.36-.1 6 6 0 0 0-.37-.09 6 6 0 0 0-.37-.06 6 6 0 0 0-.37-.04 6 6 0 0 0-.38-.01l-.1-.01h-18.7a.66.66 0 0 0-.03 0zm2.6 1.7h15.87l.09.01a5.09 4.3 0 0 1 .42.02 5.09 4.3 0 0 1 .41.04 5.09 4.3 0 0 1 .41.07 5.09 4.3 0 0 1 .4.1 5.09 4.3 0 0 1 .4.14 5.09 4.3 0 0 1 .37.16 5.09 4.3 0 0 1 .36.18 5.09 4.3 0 0 1 .34.2 5.09 4.3 0 0 1 .32.24 5.09 4.3 0 0 1 .3.25 5.09 4.3 0 0 1 .27.27 5.09 4.3 0 0 1 .24.29 5.09 4.3 0 0 1 .2.3 5.09 4.3 0 0 1 .2.32 5.09 4.3 0 0 1 .15.33 5.09 4.3 0 0 1 .11.34 5.09 4.3 0 0 1 .09.35 5.09 4.3 0 0 1 .05.35 5.09 4.3 0 0 1 .02.35 5.09 4.3 0 0 1-.13.96 5.09 4.3 0 0 1-.38.91 5.09 4.3 0 0 1-.6.82 5.09 4.3 0 0 1-.8.68 5.09 4.3 0 0 1-.97.51 5.09 4.3 0 0 1-1.08.32 5.09 4.3 0 0 1-1.13.1 5.09 4.3 0 0 1-.14 0h-15.78a.67.67 0 0 1-.38-.12.67.67 0 0 1-.24-.3.71.71 0 0 1-.05-.27v-7.23a.73.73 0 0 1 .2-.49.66.66 0 0 1 .2-.15.64.64 0 0 1 .26-.05zm-2.95 36.06v16.61h21.36a6.55 8.3 0 0 0 .38-.02 6.55 8.3 0 0 0 .38-.04 6.55 8.3 0 0 0 .38-.07 6.55 8.3 0 0 0 .37-.1 6.55 8.3 0 0 0 .37-.12 6.55 8.3 0 0 0 .36-.15 6.55 8.3 0 0 0 .36-.18 6.55 8.3 0 0 0 .34-.2 6.55 8.3 0 0 0 .34-.23 6.55 8.3 0 0 0 .32-.26 6.55 8.3 0 0 0 .32-.27 6.55 8.3 0 0 0 .3-.3 6.55 8.3 0 0 0 .28-.32 6.55 8.3 0 0 0 .27-.34 6.55 8.3 0 0 0 .25-.37 6.55 8.3 0 0 0 .24-.37 6.55 8.3 0 0 0 .22-.4 6.55 8.3 0 0 0 .2-.4 6.55 8.3 0 0 0 .18-.43 6.55 8.3 0 0 0 .16-.44 6.55 8.3 0 0 0 .14-.45 6.55 8.3 0 0 0 .12-.46 6.55 8.3 0 0 0 .1-.46 6.55 8.3 0 0 0 .07-.48 6.55 8.3 0 0 0 .06-.47 6.55 8.3 0 0 0 .03-.48 6.55 8.3 0 0 0 .01-.49 6.55 8.3 0 0 0 0-.48 6.55 8.3 0 0 0-.04-.47 6.55 8.3 0 0 0-.06-.48 6.55 8.3 0 0 0-.07-.47 6.55 8.3 0 0 0-.1-.47 6.55 8.3 0 0 0-.12-.45 6.55 8.3 0 0 0-.14-.45 6.55 8.3 0 0 0-.16-.44 6.55 8.3 0 0 0-.18-.42 6.55 8.3 0 0 0-.2-.4 6.55 8.3 0 0 0-.21-.4 6.55 8.3 0 0 0-.24-.38 6.55 8.3 0 0 0-.25-.36 6.55 8.3 0 0 0-.27-.34 6.55 8.3 0 0 0-.28-.32 6.55 8.3 0 0 0-.3-.3 6.55 8.3 0 0 0-.3-.28 6.55 8.3 0 0 0-.33-.25 6.55 8.3 0 0 0-.33-.23 6.55 8.3 0 0 0-.35-.2 6.55 8.3 0 0 0-.35-.19 6.55 8.3 0 0 0-.36-.15 6.55 8.3 0 0 0-.37-.13 6.55 8.3 0 0 0-.37-.1 6.55 8.3 0 0 0-.37-.07 6.55 8.3 0 0 0-.38-.04 6.55 8.3 0 0 0-.38-.02l-.11-.02h-20.43a.59.59 0 0 0-.02 0zm2.63 1.97h17.57a5.6 6.33 0 0 1 .4.03 5.6 6.33 0 0 1 .42.06 5.6 6.33 0 0 1 .41.09 5.6 6.33 0 0 1 .4.12 5.6 6.33 0 0 1 .4.16 5.6 6.33 0 0 1 .38.19 5.6 6.33 0 0 1 .37.22 5.6 6.33 0 0 1 .35.25 5.6 6.33 0 0 1 .33.28 5.6 6.33 0 0 1 .32.31 5.6 6.33 0 0 1 .3.34 5.6 6.33 0 0 1 .26.36 5.6 6.33 0 0 1 .25.38 5.6 6.33 0 0 1 .23.4 5.6 6.33 0 0 1 .19.42 5.6 6.33 0 0 1 .16.43 5.6 6.33 0 0 1 .14.44 5.6 6.33 0 0 1 .11.46 5.6 6.33 0 0 1 .08.46 5.6 6.33 0 0 1 .04.47 5.6 6.33 0 0 0 0 .01 5.6 6.33 0 0 0 0 .01 5.6 6.33 0 0 1 0 .02 5.6 6.33 0 0 0 0 .01 5.6 6.33 0 0 0 0 .01 5.6 6.33 0 0 0 0 .01 5.6 6.33 0 0 1 0 .02 5.6 6.33 0 0 0 0 .01 5.6 6.33 0 0 0 0 .01 5.6 6.33 0 0 0 0 .01 5.6 6.33 0 0 1 .01.03 5.6 6.33 0 0 0 0 .01 5.6 6.33 0 0 0 0 .01 5.6 6.33 0 0 0 0 .01 5.6 6.33 0 0 0 0 .01 5.6 6.33 0 0 1 0 .02 5.6 6.33 0 0 0 0 .01 5.6 6.33 0 0 0 0 .01 5.6 6.33 0 0 0 0 .01 5.6 6.33 0 0 0 0 .01 5.6 6.33 0 0 0 0 .01 5.6 6.33 0 0 0 0 .01 5.6 6.33 0 0 0 0 .01 5.6 6.33 0 0 0 0 .01 5.6 6.33 0 0 0 0 .01 5.6 6.33 0 0 0 0 .01 5.6 6.33 0 0 0 0 .01 5.6 6.33 0 0 1 0 .02 5.6 6.33 0 0 0 0 .01 5.6 6.33 0 0 0 0 .01 5.6 6.33 0 0 0 0 .01 5.6 6.33 0 0 0 0 .01 5.6 6.33 0 0 0 0 .01 5.6 6.33 0 0 0 0 .01 5.6 6.33 0 0 0 0 .01 5.6 6.33 0 0 0 0 .01 5.6 6.33 0 0 0 0 .01 5.6 6.33 0 0 0 0 .01 5.6 6.33 0 0 0 0 .01 5.6 6.33 0 0 0 0 .01 5.6 6.33 0 0 0 0 .01 5.6 6.33 0 0 0 0 .01 5.6 6.33 0 0 1-.14 1.41 5.6 6.33 0 0 1-.41 1.34 5.6 6.33 0 0 1-.67 1.2 5.6 6.33 0 0 1-.89 1 5.6 6.33 0 0 1-1.06.76 5.6 6.33 0 0 1-1.18.47 5.6 6.33 0 0 1-1.24.15 5.6 6.33 0 0 1-.16 0h-17.37l-.15-.03a.57.57 0 0 1-.26-.15 1.03 1.03 0 0 1-.3-.64 1.38 1.38 0 0 1-.02-.2V420.3l.01-.2a1.31 1.31 0 0 1 .2-.52.7.7 0 0 1 .37-.27c.05-.02.1-.02.15-.02z"/><circle cx="527.93" cy="384.27" r="7.13"/><circle cx="529.02" cy="384.9" r="4.12" fill="#0ff"/><path d="M527.29 370.28h1.27v7.83h-1.27z"/><circle cx="530.2" cy="385.73" r="1.99"/></g></svg>